<svg width="189" height="189" viewBox="0 0 189 189" fill="none" xmlns="http://www.w3.org/2000/svg">
<line x1="63.5" y1="40" x2="63.5" y2="124" stroke="black" stroke-width="5"/>
<line x1="61" y1="37.5" x2="107" y2="37.5" stroke="black" stroke-width="5"/>
<path d="M103.414 79.4142C104.195 78.6332 104.195 77.3668 103.414 76.5858L90.6863 63.8579C89.9052 63.0768 88.6389 63.0768 87.8579 63.8579C87.0768 64.6389 87.0768 65.9052 87.8579 66.6863L99.1716 78L87.8579 89.3137C87.0768 90.0948 87.0768 91.3611 87.8579 92.1421C88.6389 92.9232 89.9052 92.9232 90.6863 92.1421L103.414 79.4142ZM64 80H102V76H64V80Z" fill="black"/>
<line x1="124.5" y1="148" x2="124.5" y2="64" stroke="black" stroke-width="5"/>
<line x1="127" y1="150.5" x2="81" y2="150.5" stroke="black" stroke-width="5"/>
<path d="M84.5858 108.586C83.8047 109.367 83.8047 110.633 84.5858 111.414L97.3137 124.142C98.0948 124.923 99.3611 124.923 100.142 124.142C100.923 123.361 100.923 122.095 100.142 121.314L88.8284 110L100.142 98.6863C100.923 97.9052 100.923 96.6389 100.142 95.8579C99.3611 95.0768 98.0948 95.0768 97.3137 95.8579L84.5858 108.586ZM124 108H86V112H124V108Z" fill="black"/>
<circle cx="94.5" cy="94.5" r="92" stroke="black" stroke-width="5"/>
</svg>
